<?xml version="1.0" encoding="UTF-8"?>
<svg xmlns="http://www.w3.org/2000/svg" width="100" height="100" viewBox="0 0 100 100" fill="none"> <path d="M98.0041 50.0498C98.0041 62.1136 93.5131 73.1804 86.1279 81.5553C82.9343 81.1565 79.7407 81.3559 76.547 81.0568V80.7577C75.7486 79.0628 75.2496 76.5703 75.05 74.7756C74.7506 71.2861 74.2516 68.5942 74.2516 65.3041C74.3514 61.2163 73.6528 57.328 74.2516 50.0498C74.551 46.8594 74.8504 43.7687 74.8504 40.5782C74.8504 36.7896 74.9502 33.001 74.8504 29.2123C74.8504 27.2183 74.6508 25.2243 74.4512 23.2303C74.3514 21.6351 73.3534 19.7407 73.553 18.3449C73.8524 16.5503 72.056 14.8554 71.058 13.5593C70.06 12.0638 69.062 10.668 67.565 9.67096C65.07 7.77664 61.1778 6.18143 57.585 5.58322L57.9842 2.69189C80.7387 6.58023 98.0041 26.2213 98.0041 50.0498Z" fill="#4C5394"/> <path d="M86.1278 81.5553C77.3453 91.6251 64.3713 98.006 50 98.006C35.8284 98.006 23.0539 91.9242 14.2715 82.1535L14.6707 81.8544C16.1677 81.2562 18.7625 82.0538 20.5589 81.9541C21.6567 81.9541 22.8543 81.7547 23.9521 81.655C24.6507 81.5553 25.2495 81.5553 25.8483 81.4556C26.7465 81.3559 27.7445 81.3559 28.6427 81.2562V81.3559C28.9421 88.8335 40.4192 93.6191 51.5968 93.6191C63.5729 93.6191 73.8523 87.4377 73.7525 81.1565V80.8574C74.3513 80.8574 74.9501 80.8574 75.4491 80.9571C75.8483 80.9571 76.1477 81.0568 76.5469 81.0568C79.7405 81.3559 82.9342 81.2562 86.1278 81.5553Z" fill="#A9A09F"/> <path d="M62.1758 67.7966C63.3734 66.3011 64.7706 64.6062 65.569 62.9112C66.4672 61.1166 66.3674 58.9232 66.4672 57.0289C68.6628 56.9292 69.8605 52.9411 70.3595 51.645C71.0581 49.8504 71.2577 44.5663 68.9622 43.4696C68.9622 43.1705 69.062 42.8714 68.9622 42.5723C68.7626 42.1735 68.064 41.7746 67.565 41.5752C67.3654 41.4755 67.1658 41.4755 66.9662 41.4755L68.4632 41.2761C67.066 37.2881 70.06 32.9013 68.563 28.9132C67.066 25.0249 64.3714 20.9372 60.2796 19.5413C58.9822 19.1425 57.585 19.0428 56.2876 18.8434C55.09 18.7437 54.2916 18.7437 53.2936 19.1425C51.098 17.647 49.102 16.9491 46.4074 17.0488C42.1159 17.2482 38.3235 18.4446 35.3295 21.6351C33.2337 23.8285 31.4373 26.8195 31.3375 29.9102C31.2377 32.4028 32.0361 34.7956 32.0361 37.1884C32.0361 38.3848 31.8365 39.2821 31.4373 40.3788C31.1379 41.0767 30.8385 41.974 30.9383 42.7717C31.0381 42.7717 31.0381 42.7717 31.0381 42.7717C30.7387 42.9711 30.6389 43.0708 30.5391 43.2702V43.5693C28.3435 43.5693 27.7447 45.1645 27.8445 47.0588L27.1459 47.1585C27.0461 46.5603 27.0461 45.9621 26.9463 45.3639C28.2437 37.1884 23.2537 28.315 26.5471 20.339C28.4433 15.7527 32.0361 11.1665 36.1279 8.27515C41.3175 4.58621 48.7028 5.28412 54.7906 5.08472C55.6888 5.08472 56.587 5.08472 57.585 5.28412C61.1778 5.88232 65.1698 7.47754 67.7646 9.37186C69.2617 10.4686 70.2597 11.8644 71.2577 13.2602C72.1559 14.5563 74.0521 16.2512 73.7527 18.0458C73.5531 19.4416 74.5511 21.336 74.6509 22.9312C74.7507 24.9252 74.9503 26.9192 75.0501 28.9132C75.1499 32.7019 75.0501 36.4905 75.0501 40.2791C75.0501 43.4696 74.6509 46.5603 74.4513 49.7507C73.8525 57.0289 74.5511 60.9172 74.4513 65.005C74.3515 68.2951 74.8505 70.987 75.2497 74.4765C75.4493 76.2712 75.9483 78.7637 76.7467 80.4586V80.7577C76.3475 80.7577 76.0481 80.658 75.6489 80.658C75.1499 80.5583 74.5511 80.5583 73.9523 80.5583C71.0581 80.4586 67.565 80.7577 65.1698 79.661C62.4752 78.4646 62.6748 76.4706 62.1758 74.5762C61.6768 73.4795 61.4772 68.6939 62.1758 67.7966Z" fill="#CA4F24"/> <path d="M73.7529 80.8575V81.1566C73.9525 87.4377 63.5732 93.6192 51.5972 93.6192C40.4195 93.6192 28.9425 88.8335 28.6431 81.356V81.2563C30.4395 81.0568 32.3357 80.658 34.0323 80.1595C37.4255 79.1625 40.0203 77.8664 40.5193 74.2772C40.7189 73.0808 41.2179 69.5912 40.4195 68.0957C43.1141 70.0898 46.1081 71.8844 49.0023 73.2802C53.9924 75.673 58.8826 71.8844 61.9764 68.0957C62.0762 67.996 62.176 67.8963 62.176 67.7966C61.3776 68.7936 61.677 73.5793 61.9764 74.8754C62.4754 76.8694 62.2758 78.7637 64.9704 79.9601C67.3656 81.0569 70.8586 80.7578 73.7529 80.8575Z" fill="white"/> <path d="M68.9638 43.4697C71.2592 44.5664 71.1594 49.7509 70.361 51.6452C69.862 52.9413 68.5646 56.9294 66.4688 57.0291C66.4688 56.9294 66.4688 56.7299 66.4688 56.6302C66.7682 53.6392 67.1674 50.1497 67.9658 47.2584C68.2652 46.2614 68.864 44.7658 68.9638 43.4697Z" fill="white"/> <path d="M47.5066 64.706V64.9054C49.0036 65.0052 49.303 66.5007 50.8 66.7001C52.297 66.8995 53.794 65.404 54.8918 64.6063C54.3928 64.4069 53.1952 63.709 52.796 63.709C52.297 63.709 51.798 64.0081 51.1992 63.9084C50.6004 63.9084 50.1014 63.6093 49.5026 63.9084C48.7042 64.3072 48.4048 64.706 47.5066 64.706ZM30.9397 43.8686C30.8399 43.8686 30.7401 43.8686 30.5405 43.8686V43.5695C30.6403 43.4698 30.7401 43.2704 31.0395 43.071C31.7381 42.5724 33.0355 42.0739 33.6343 41.9742C34.0335 43.4698 33.6343 45.8626 34.6323 47.8566C35.7301 49.9503 38.0256 51.3461 42.1174 51.2464C46.2092 51.1467 48.7042 47.3581 48.6044 43.8686C48.5046 43.7689 48.5046 43.7689 48.4048 43.6692L48.5046 43.5695C49.2032 43.5695 50.8 43.9683 51.6982 43.6692C51.5984 43.7689 51.5984 43.7689 51.4986 43.8686C51.3988 47.3581 53.8938 51.047 57.9856 51.2464C62.0775 51.3461 64.3729 49.9503 65.4707 47.8566C66.5685 45.7629 65.9697 43.071 66.5685 41.6751L67.5665 41.5754C68.1653 41.7748 68.7641 42.1736 68.9637 42.5724C68.9637 42.8716 68.9637 43.1707 68.9637 43.4698C68.7641 44.7659 68.2651 46.2614 68.0655 47.1587C67.2671 50.1497 66.8679 53.5395 66.5685 56.5306C66.5685 56.6303 66.5685 56.8297 66.5685 56.9294C66.3689 58.9234 66.5685 61.1168 65.6703 62.8117C64.8719 64.5066 63.4747 66.2016 62.2771 67.6971C62.1773 67.7968 62.0775 67.8965 62.0775 67.9962C59.0834 71.7848 54.0934 75.5734 49.1034 73.1806C46.1094 71.7848 43.2152 69.9902 40.5206 67.9962C39.5226 67.2983 38.6244 66.6004 37.7262 65.8028C34.8319 63.3102 34.2331 60.4189 33.7341 57.0291C33.7341 56.8297 33.6343 56.5306 33.6343 56.3312C32.7361 51.6452 30.9397 48.8536 30.9397 43.8686Z" fill="white"/> <path d="M66.966 41.4755C67.1656 41.4755 67.3652 41.4755 67.5648 41.5752L66.5668 41.6749C62.2754 40.977 54.6905 41.0767 51.6965 43.7686C50.8981 43.968 49.3013 43.6689 48.5029 43.6689L48.4031 43.7686C45.4091 41.0767 37.8243 40.977 33.5328 41.6749C33.5328 41.7746 33.6326 41.8743 33.6326 41.974C33.0338 42.1734 31.7364 42.6719 31.0378 43.1704C31.0378 43.1704 31.0378 43.1704 30.938 43.1704C30.8382 42.3728 31.1376 41.4755 31.437 40.7776C31.8362 39.6809 32.0358 38.7836 32.0358 37.5872C32.0358 35.0946 31.3372 32.7018 31.3372 30.309C31.437 27.2183 33.2334 24.2272 35.3293 22.0338C38.3233 18.8434 42.1157 17.647 46.4071 17.4476C49.1017 17.3479 51.1975 18.0458 53.2933 19.5413C54.2913 19.1425 55.0897 19.0428 56.2873 19.2422C57.5847 19.3419 58.9819 19.4416 60.2794 19.9401C64.471 21.3359 67.1656 25.4237 68.5628 29.312C70.0598 33.3 67.0658 37.6869 68.463 41.6749L66.966 41.4755Z" fill="white"/> <path d="M58.9821 46.1615C59.4811 46.1615 59.8803 45.5633 59.3813 45.1645C58.3833 44.4666 57.4851 46.4606 58.9821 46.1615ZM51.6966 43.7687C54.6906 41.0768 62.2755 40.9771 66.5669 41.675C65.9681 43.1705 66.5669 45.7627 65.4691 47.8565C64.3713 49.9502 62.0759 51.346 57.9841 51.2463C53.8922 51.1466 51.3972 47.358 51.497 43.8684C51.5968 43.8684 51.5968 43.7687 51.6966 43.7687Z" fill="white"/> <path d="M57.9841 2.69192L57.4851 5.58325C56.4871 5.38385 55.5889 5.38385 54.6907 5.38385C48.7027 5.58325 41.3175 4.88534 36.028 8.57428C31.9362 11.4656 28.3434 16.0518 26.4472 20.6381C23.1538 28.6142 28.1438 37.4875 26.8464 45.663C26.9462 46.1615 26.9462 46.7597 27.046 47.4576C27.7446 54.8355 27.8444 67.8963 25.9482 74.9751C25.3494 77.3679 24.6508 79.3619 23.8524 81.5553V81.655C22.7546 81.7547 21.557 81.8544 20.4592 81.9541C18.6628 82.0538 16.1678 81.2562 14.5709 81.8544L14.1717 82.1535C6.68671 73.679 1.99609 62.4128 1.99609 50.0499C1.99609 23.5294 23.4532 1.99402 50.0001 1.99402C52.6947 1.99402 55.3893 2.29312 57.9841 2.69192Z" fill="#4C5394"/> <path d="M52.7958 63.8086C53.195 63.8086 54.3926 64.5065 54.8916 64.7059C53.7938 65.5035 52.2968 66.999 50.7998 66.7996C49.4026 66.6002 49.0034 65.1047 47.5063 65.005V64.8056C48.4046 64.8056 48.704 64.4068 49.5024 64.1077C50.1012 63.9083 50.6002 64.1077 51.199 64.1077C51.8976 64.008 52.2968 63.8086 52.7958 63.8086Z" fill="white"/> <path d="M41.0197 46.4605C41.9179 46.2611 42.3171 45.2641 41.1195 44.965C39.6225 44.5662 39.7223 46.5602 41.0197 46.4605ZM33.6345 41.974C33.6345 41.8743 33.5347 41.7746 33.5347 41.6749C37.8261 40.977 45.4109 41.0767 48.4049 43.7686C48.5047 43.8683 48.5047 43.8683 48.6045 43.968C48.7043 47.4575 46.2093 51.1465 42.1175 51.3459C38.0257 51.4456 35.7303 50.0498 34.6325 47.956C33.6345 45.962 34.0337 43.5692 33.6345 41.974Z" fill="white"/> <path d="M41.1193 44.965C42.3169 45.2641 41.9177 46.2611 41.0195 46.4605V46.3608C39.7221 46.5602 39.6223 44.5662 41.1193 44.965Z" fill="white"/> <path d="M40.4192 68.0957C41.2176 69.5912 40.7186 72.981 40.519 74.2771C40.02 77.8664 37.525 79.1625 34.032 80.1595C32.2356 80.658 30.4392 81.0568 28.6428 81.2562C27.7446 81.3559 26.7466 81.4556 25.8484 81.4556C25.2496 81.4556 24.551 81.5553 23.9521 81.655V81.5553C24.7506 79.3619 25.4492 77.3679 26.048 74.9751C27.8444 67.8963 27.8444 54.8355 27.1458 47.4576L27.8444 47.3579C27.9442 49.4516 28.9422 51.8445 29.3414 52.8415C29.8404 53.9382 30.4392 55.9322 31.537 56.6301C33.034 57.6271 32.535 57.4277 33.3334 56.331H33.4332C33.4332 56.5304 33.533 56.8295 33.533 57.0289C34.032 60.5184 34.6308 63.31 37.525 65.8026C38.523 66.6002 39.4212 67.3978 40.4192 68.0957Z" fill="#CA4F24"/> <path d="M33.5318 56.331H33.432C32.6336 57.4277 33.1326 57.5274 31.6356 56.6301C30.5378 55.9322 29.939 53.9382 29.44 52.8415C28.941 51.8445 28.0428 49.4517 27.943 47.3579C27.8432 45.4636 28.442 43.8684 30.6376 43.8684C30.7374 43.8684 30.8372 43.8684 31.0368 43.8684C30.937 48.8535 32.7334 51.6451 33.5318 56.331Z" fill="white"/> <path d="M33.432 56.4308C32.6336 57.5275 33.1326 57.6272 31.6356 56.7299C30.5378 56.0319 29.939 54.0379 29.44 52.9412C28.941 51.9442 28.0428 49.5514 27.943 47.4577C27.8432 45.5634 28.442 43.9681 30.6376 43.9681C30.7374 43.9681 30.8372 43.9681 31.0368 43.9681C31.1366 43.9681 31.2364 43.9681 31.436 43.9681" stroke="#2F3359" stroke-width="1.8" stroke-miterlimit="10" stroke-linecap="round" stroke-linejoin="round"/> <path d="M66.4688 56.9292C68.6644 56.8295 69.862 52.8415 70.361 51.5453C71.0596 49.7507 71.2592 44.4666 68.9638 43.3699C68.9638 43.3699 68.9638 43.3699 68.864 43.3699" stroke="#2F3359" stroke-width="1.8" stroke-miterlimit="10" stroke-linecap="round" stroke-linejoin="round"/> <path d="M30.938 43.8685C31.0378 48.8535 32.7344 51.6451 33.5328 56.4308C33.5328 56.6302 33.6326 56.9293 33.6326 57.1287C34.1316 60.6182 34.7304 63.4098 37.6246 65.9024C38.5228 66.7 39.421 67.3979 40.419 68.0958C43.1136 70.0898 46.1076 71.8844 49.0019 73.2802C53.9919 75.6731 58.8821 71.8844 61.9759 68.0958C62.0757 67.9961 62.1755 67.8964 62.1755 67.7967C63.3731 66.3012 64.7703 64.6063 65.5687 62.9113C66.4669 61.1167 66.3671 58.9233 66.4669 57.029C66.4669 56.9293 66.4669 56.7299 66.4669 56.6302C66.7663 53.6392 67.1655 50.1496 67.9639 47.2583C68.1635 46.361 68.7623 44.8655 68.8621 43.5694C68.8621 43.2703 68.9619 42.9712 68.8621 42.6721C68.8621 42.2733 68.7623 41.8745 68.5627 41.675" stroke="#2F3359" stroke-width="1.8" stroke-miterlimit="10" stroke-linecap="round" stroke-linejoin="round"/> <path d="M49.2998 58.8235C49.7988 58.9232 50.5972 59.5214 50.9964 59.6211C51.7948 59.7208 52.194 59.1226 52.9924 59.0229" stroke="#2F3359" stroke-width="1.8" stroke-miterlimit="10" stroke-linecap="round" stroke-linejoin="round"/> <path d="M14.6709 81.7547C16.1679 81.1565 18.7627 81.9541 20.5591 81.8544C21.6569 81.8544 22.8545 81.655 23.9523 81.5553C24.6509 81.4556 25.2497 81.4556 25.8485 81.3559C26.7467 81.2562 27.7448 81.2562 28.643 81.1565C30.4394 80.9571 32.3356 80.5583 34.0322 80.0598C37.4254 79.0628 40.0202 77.7667 40.5192 74.1774C40.7188 72.981 41.2178 69.4915 40.4194 67.996" stroke="#2F3359" stroke-width="1.8" stroke-miterlimit="10" stroke-linecap="round" stroke-linejoin="round"/> <path d="M62.2751 67.6969C62.2751 67.6969 62.1753 67.6969 62.2751 67.6969C61.4767 68.6939 61.6763 73.4796 61.9757 74.8754C62.4747 76.8694 62.2751 78.7637 64.9697 79.9601C67.365 81.0568 70.858 80.8574 73.7522 80.8574C74.351 80.8574 74.9498 80.8574 75.4488 80.9571C75.848 80.9571 76.1474 81.0568 76.5466 81.0568C79.7402 81.3559 82.9338 81.2562 86.1274 81.5553C86.327 81.5553 86.5266 81.5553 86.7262 81.655" stroke="#2F3359" stroke-width="1.8" stroke-miterlimit="10" stroke-linecap="round" stroke-linejoin="round"/> <path d="M53.6924 39.0828C55.0896 39.0828 56.387 38.3849 57.5846 37.687C58.6824 37.0888 59.6804 36.4905 60.7782 35.992C62.5746 35.0947 64.0716 35.992 65.2692 37.4876" stroke="#2F3359" stroke-width="1.8" stroke-miterlimit="10" stroke-linecap="round" stroke-linejoin="round"/> <path d="M47.2056 64.7059C47.3054 64.7059 47.4052 64.7059 47.4052 64.7059C48.3034 64.7059 48.6028 64.3071 49.4012 64.008C50 63.8086 50.499 64.008 51.0978 64.008C51.6966 64.008 52.0958 63.7089 52.6946 63.8086C53.0938 63.8086 54.2914 64.5065 54.7904 64.7059C53.6926 65.5035 52.1956 66.999 50.6986 66.7996C49.3014 66.6002 48.9022 65.1047 47.4052 65.005" stroke="#2F3359" stroke-width="1.8" stroke-miterlimit="10" stroke-linecap="round" stroke-linejoin="round"/> <path d="M34.0337 38.1854C36.2293 37.6869 35.9299 35.4935 38.6245 35.8923C40.9199 36.2911 42.3171 37.3878 44.5127 37.986" stroke="#2F3359" stroke-width="1.8" stroke-miterlimit="10" stroke-linecap="round" stroke-linejoin="round"/> <path d="M37.126 44.5663C38.9224 41.675 42.3156 43.3699 44.611 44.3669" stroke="#2F3359" stroke-width="1.8" stroke-miterlimit="10" stroke-linecap="round" stroke-linejoin="round"/> <path d="M41.0195 46.3611C39.7221 46.6602 39.6223 44.5665 41.1193 44.9653C42.3169 45.2644 41.9177 46.2614 41.0195 46.3611ZM41.0195 46.3611C40.9197 46.4608 40.7201 46.4608 40.5205 46.4608" stroke="#2F3359" stroke-width="1.8" stroke-miterlimit="10" stroke-linecap="round" stroke-linejoin="round"/> <path d="M55.5889 44.666C57.3853 42.4726 60.5789 43.7687 62.5749 44.5663" stroke="#2F3359" stroke-width="1.8" stroke-miterlimit="10" stroke-linecap="round" stroke-linejoin="round"/> <path d="M58.9802 46.1616C57.3834 46.4607 58.2816 44.4667 59.3794 45.1646C59.9782 45.5634 59.4792 46.1616 58.9802 46.1616ZM58.9802 46.1616C58.7806 46.1616 58.581 46.0619 58.3814 45.8625" stroke="#2F3359" stroke-width="1.8" stroke-miterlimit="10" stroke-linecap="round" stroke-linejoin="round"/> <path d="M51.6966 43.7687C51.5968 43.8684 51.5968 43.8684 51.497 43.9681C51.3972 47.4576 53.8922 51.1465 57.9841 51.3459C62.0759 51.4456 64.3713 50.0498 65.4691 47.9561C66.5669 45.8624 65.9681 43.1705 66.5669 41.7747C62.2755 40.9771 54.6906 41.0768 51.6966 43.7687Z" stroke="#2F3359" stroke-width="1.8" stroke-miterlimit="10" stroke-linecap="round" stroke-linejoin="round"/> <path d="M48.4049 43.7687C48.5047 43.8684 48.5047 43.8684 48.6045 43.9681C48.7043 47.4576 46.2093 51.1465 42.1175 51.3459C38.0257 51.4456 35.7303 50.0498 34.6325 47.9561C33.6345 45.9621 34.0337 43.5693 33.6345 42.0738C33.6345 41.9741 33.5347 41.8744 33.5347 41.7747C37.8261 40.9771 45.4109 41.0768 48.4049 43.7687Z" stroke="#2F3359" stroke-width="1.8" stroke-miterlimit="10" stroke-linecap="round" stroke-linejoin="round"/> <path d="M48.5044 43.5695C49.203 43.5695 50.7998 43.9683 51.698 43.6692C51.7978 43.6692 51.8976 43.5695 51.9974 43.5695" stroke="#2F3359" stroke-width="1.8" stroke-miterlimit="10" stroke-linecap="round" stroke-linejoin="round"/> <path d="M30.5405 43.5693C30.6403 43.4696 30.7401 43.2702 31.0395 43.0708C31.7381 42.5723 33.0355 42.0738 33.6343 41.9741H33.7341C33.8339 42.0738 33.8339 42.0738 33.8339 42.1735" stroke="#2F3359" stroke-width="1.8" stroke-miterlimit="10" stroke-linecap="round" stroke-linejoin="round"/> <path d="M66.8662 41.4756C66.8662 41.4756 66.966 41.4756 67.0658 41.4756C67.2654 41.4756 67.465 41.4756 67.6646 41.5753C68.2634 41.7747 68.8622 42.1735 69.0618 42.5723C69.0618 42.672 69.1616 42.672 69.1616 42.7717" stroke="#2F3359" stroke-width="1.8" stroke-miterlimit="10" stroke-linecap="round" stroke-linejoin="round"/> <path d="M68.463 41.3759C67.0658 37.3879 70.0598 33.0011 68.5628 29.013C67.0658 25.1247 64.3712 21.037 60.2794 19.6412C58.9819 19.2423 57.5847 19.1426 56.2873 18.9432C55.0897 18.8435 54.2913 18.8435 53.2933 19.2423C51.0977 17.7468 49.1017 17.0489 46.4071 17.1486C42.1157 17.348 38.3233 18.5444 35.3293 21.7349C33.2334 23.9283 31.437 26.9193 31.3372 30.01C31.2374 32.5026 32.0358 34.8954 32.0358 37.2882C32.0358 38.4846 31.8362 39.3819 31.437 40.4786C31.1376 41.1765 30.8382 42.0739 30.938 42.8715C31.0378 42.8715 31.0378 42.8715 31.0378 42.8715C31.0378 42.8715 31.0378 42.7718 31.1376 42.7718" stroke="#2F3359" stroke-width="1.8" stroke-miterlimit="10" stroke-linecap="round" stroke-linejoin="round"/> <path d="M23.9521 81.5554C24.7506 79.362 25.4492 77.368 26.048 74.9752C27.8444 67.8964 27.8444 54.8356 27.1458 47.4577C27.046 46.8595 27.046 46.2613 26.9462 45.6631" stroke="#2F3359" stroke-width="1.8" stroke-miterlimit="10" stroke-linecap="round" stroke-linejoin="round"/> <path d="M26.9463 45.6631C28.2437 37.4876 23.2537 28.6142 26.5471 20.6381C28.4433 16.0519 32.0361 11.4657 36.1279 8.57434C41.3175 4.88541 48.7028 5.58331 54.7906 5.38391C55.6888 5.38391 56.587 5.38391 57.585 5.58331C61.1778 6.18152 65.1698 7.77673 67.7646 9.67105C69.2617 10.7678 70.2597 12.1636 71.2577 13.5594C72.1559 14.8555 74.0521 16.5504 73.7527 18.345C73.5531 19.7408 74.5511 21.6352 74.6509 23.2304C74.7507 25.2244 74.9503 27.2184 75.0501 29.2124C75.1499 33.0011 75.0501 36.7897 75.0501 40.5783C75.0501 43.7688 74.6509 46.8595 74.4513 50.0499C73.8525 57.3281 74.5511 61.2164 74.4513 65.3041C74.3515 68.5943 74.8505 71.2862 75.2497 74.7757C75.4493 76.5703 75.9483 79.0629 76.7467 80.7578" stroke="#2F3359" stroke-width="1.8" stroke-miterlimit="10" stroke-linecap="round" stroke-linejoin="round"/> <path d="M53.4946 18.9432C54.3928 17.6471 59.1833 15.9522 63.3749 17.4477" stroke="#2F3359" stroke-width="1.8" stroke-miterlimit="10" stroke-linecap="round" stroke-linejoin="round"/> <path d="M30.1401 22.3329C30.8387 15.8524 41.1182 10.3688 47.1062 12.0637" stroke="#2F3359" stroke-width="1.8" stroke-miterlimit="10" stroke-linecap="round" stroke-linejoin="round"/> <path d="M28.6431 81.3559C28.9425 88.8335 40.4195 93.6191 51.5972 93.6191C63.5732 93.6191 73.8527 87.4377 73.7528 81.1565" stroke="#2F3359" stroke-width="1.8" stroke-miterlimit="10" stroke-linecap="round" stroke-linejoin="round"/> <path fill-rule="evenodd" clip-rule="evenodd" d="M50 3.98804C24.5609 3.98804 3.99202 24.6253 3.99202 50.0498C3.99202 61.8997 8.48626 72.6974 15.758 80.8229C24.1726 90.1835 36.4117 96.012 50 96.012C63.7681 96.012 76.1981 89.901 84.6165 80.1531L84.6232 80.1453L84.63 80.1375C91.7048 72.1148 96.008 61.5128 96.008 49.9501C96.008 27.2185 79.3723 8.29694 57.6674 4.66074C55.1279 4.27082 52.5486 3.98804 50 3.98804ZM0 50.0498C0 22.4335 22.3453 0 50 0C52.8363 0 55.6417 0.314445 58.2875 0.721093L58.3006 0.723097L58.3136 0.725272C81.9118 4.67169 100 25.2287 100 49.9501C100 62.5114 95.324 74.0399 87.6323 82.766C78.4859 93.3525 64.9707 100 50 100C35.2457 100 21.9365 93.6656 12.7863 83.4858L12.7835 83.4826C4.8864 74.6592 0 62.925 0 50.0498Z" fill="#6653d9"/> </svg>
