<svg width="140" height="110" viewBox="0 0 140 110" xmlns="http://www.w3.org/2000/svg"><path fill="none" d="M2.08 10.01h135.84V110H2.08z"/><path fill="#282e59" d="M132.03 83.03c-2.49-3.06-9.27-3.83-9.27-3.83-.03-.75.46-4.41.67-5.14.41-1.37.53-2.17.55-2.65 2.25-2.5 3.41-4.98 3.5-5.17l.63-1.38-1.35.67c-.36.18-.75.36-1.11.52 1.64-2.96 2.12-8.23 2.15-8.49l.1-1.11-.93.62c-.02.01-2.16 1.41-4.42.71-1.68-.53-3.04-2.08-4.04-4.61l-.05-.08.02-.01c.02-.13.03-.26.07-.37.5-1.32 1.17-2.58 1.57-3.92.71-2.4.78-4.82-.23-7.18-.71-1.65-.83-1.69-2.56-1.23-2.52.67-4.54 2.17-6.37 3.95-.26.25-.49.35-.75.35-1.72-.6-4.68-1.37-7.35-.75l-.11.05-.11-.05c-2.68-.62-5.63.15-7.35.75-.26-.01-.49-.1-.75-.35-1.83-1.78-3.85-3.28-6.37-3.95-1.73-.46-1.85-.42-2.56 1.23-1.01 2.36-.95 4.79-.23 7.18.4 1.34 1.07 2.61 1.57 3.92.04.11.05.24.07.37l.02.01-.05.08c-1 2.53-2.36 4.09-4.04 4.61-2.26.7-4.4-.7-4.42-.71l-.93-.62.1 1.11c.02.26.5 5.53 2.15 8.49-.36-.16-.75-.35-1.11-.52l-1.35-.67.63 1.38c.12.26 2.19 4.66 6.24 7.69l.05.23c.15.72.34 1.42.58 2.11l.11.27-.61.07.75.29c.33.84.7 1.67 1.15 2.46l.34.6c-.21-.03-.43-.08-.65-.08l.49.23c-1.31.02-7.99.39-11.25 5.17C72.66 89.03 70.7 110 70.7 110h67.21c.01 0-1.04-21.01-5.88-26.97z"/><path fill="#fff" d="M96.51 66.97c-1.72-.44-2.48-1.63-3.2-2.41 2.01.26 5.14 1.06 5.73 1.66-.71.86-1.53 1.01-2.53.75zm12.76-.75c.6-.6 3.72-1.4 5.73-1.66-.72.78-1.48 1.97-3.2 2.41-.99.26-1.81.11-2.53-.75z"/><path fill="none" d="M2.08 10.01h135.84V110H2.08z"/><path fill="#282e59" d="M63.37 86.89c-2.94-2.6-9.23-3.82-9.23-3.82-.03-.75.46-4.39.67-5.12.4-1.36.53-2.16.55-2.64 2.24-2.49 3.39-4.95 3.48-5.15l.63-1.37-1.35.67c-.35.18-.74.36-1.1.52 1.64-2.95 2.12-8.2 2.14-8.45l.1-1.11-.92.62c-.02.01-2.15 1.41-4.4.71-1.67-.52-3.03-2.07-4.02-4.59l-.05-.08.02-.01c.02-.13.03-.25.07-.37.5-1.31 1.17-2.57 1.57-3.91.71-2.39.78-4.8-.23-7.15-.71-1.65-.82-1.69-2.55-1.23-2.51.67-4.52 2.17-6.35 3.94-.26.25-.49.35-.75.35-1.71-.6-4.66-1.37-7.32-.75l-.11.05-.11-.05c-2.66-.62-5.61.15-7.32.75-.26-.01-.49-.1-.75-.35-1.82-1.77-3.83-3.27-6.35-3.94-1.72-.46-1.84-.42-2.55 1.23-1.01 2.35-.94 4.77-.23 7.15.4 1.34 1.07 2.59 1.57 3.91.04.11.05.24.07.37l.02.01-.05.08c-1 2.52-2.35 4.07-4.02 4.59-2.25.7-4.38-.7-4.4-.71l-.92-.62.1 1.11c.02.26.5 5.5 2.14 8.45-.36-.16-.75-.35-1.1-.52l-1.35-.67.63 1.37c.12.26 2.18 4.64 6.21 7.66l.05.22c.15.71.34 1.41.58 2.1l.11.27-.61.07.75.29c.33.84.7 1.66 1.15 2.45l.34.59c-.21-.03-.42-.08-.65-.08l.47.24c-1.31.02-7.96.39-11.2 5.15C4.26 92.86 2.3 110 2.3 110h63.41l.19-15.01c0-.01.64-5.3-2.53-8.1z"/><path fill="#fff" d="M28 70.89c-1.71-.44-2.47-1.62-3.18-2.4 2 .25 5.11 1.06 5.71 1.65-.71.86-1.54 1.01-2.53.75zm12.71-.74c.59-.59 3.71-1.4 5.71-1.65-.71.77-1.47 1.96-3.18 2.4-1 .25-1.82.1-2.53-.75z"/><path fill="none" d="M2.08 10.01h135.84V110H2.08z"/><path fill="#b7b9c6" d="M56.81 67.63l26.09 2.19s9.61 11.09 9.22 13.49 2.36 13.74-2.64 16.26c-5 2.52-23.28 6.04-25.8 5.54s-3.15 2.61-8.19-4.3-5.04-10.97-5.04-14.3c-.01-3.33 6.36-18.88 6.36-18.88z"/><path fill="none" d="M2.08 10.01h135.84V110H2.08z"/><path fill="#b7b9c6" d="M88.8 67.44c-.84.11-1.09.38-1.09.56 0 .6.69.27 3.22 1.33-3.01.71-7.15 1.44-9.93.93.37-.79.67-1.63.9-2.59.1-.43.29-1.03.4-1.42 2.6-.46 1.57-.76 4.12-1.21l1.2-.32c-.33-.12 1.66-.49 1.36-.65-.34-.18-.64-.43-1.07-.73 6.18-3.42 10.39-8.35 12.94-14.9-5.81-.97-8.33-2.96-9.18-7.2-4.41-.91-8.19.43-11.56 3.36-.15-.87-.27-1.64-.45-2.67-2.83 4.38-3.53 5.11-5.31 5.56-1.97-3.75-2.44-7.94-3.29-12.03v-.1l-.01.05-.01-.05v.1c-.85 4.1-1.32 8.28-3.29 12.03-1.78-.45-2.48-1.18-5.31-5.56-.17 1.03-.3 1.8-.45 2.67-3.36-2.94-7.15-4.27-11.56-3.36-.85 4.24-3.38 6.23-9.18 7.2 2.55 6.54 6.76 11.47 12.94 14.9-.43.3-.73.54-1.07.73-.3.16-.65.26-.97.38 2.54.45 5.05 1.34 7.65 1.8.11.39.29.99.4 1.42.23.95.53 1.8.9 2.59-2.78.51-6.92-.21-9.93-.93 3.22-.47 3.22-.73 3.22-1.33 0-.17-.06-.75-.9-.86-8.65-1.1-14.21-8.68-16.46-12.42 2.26.98 2.48.67 2.77.28.21-.29.32-.75-.29-1.37-2.32-2.32-3.4-8.88-3.78-11.82 1.46.63 3.88 1.33 6.49.52 2.97-.92 5.33-3.53 6.99-7.76l.01-.07.57.25c.21-.35.46-.68.56-1.06.12-.44.15-.99-.01-1.41-1.18-3.19-2.06-6.44-1.99-9.88.02-.94.27-1.87.43-2.94 2.24.94 3.87 2.27 5.27 3.91.81.95 1.56 1.95 2.39 2.88 1.27 1.4 3.72.89 4.13-.94.11-.5-.45-1.15-.76-1.75-.12-.08-.2-.17-.27-.26 2.04-.8 6.86-2.39 10.99-1.44.18.04.36.01.52-.07.16.08.34.11.52.07 4.13-.95 8.95.63 10.99 1.44-.07.09-.15.18-.27.26-.32.6-.87 1.25-.76 1.75.41 1.83 2.86 2.35 4.13.94.83-.93 1.59-1.93 2.39-2.88 1.39-1.64 3.03-2.97 5.27-3.91.16 1.08.41 2.01.43 2.94.08 3.43-.81 6.68-1.99 9.88-.16.42-.13.97-.01 1.41.1.38.35.71.56 1.06.17-.08.37-.17.57-.25l.01.07c1.66 4.23 4.02 6.84 6.99 7.76 2.6.81 5.03.11 6.49-.52-.38 2.95-1.46 9.51-3.78 11.82-.61.61-.5 1.08-.29 1.37.28.39.51.7 2.77-.28-2.26 3.73-7.63 11.62-16.27 12.72z"/><path fill="none" d="M2.08 10.01h135.84V110H2.08z"/><path fill="#fff" d="M106.09 46.9c-.86 1.96-2.42 2.37-2.42 2.37v-3.45c-3.41.32-9.07.72-9.8-7.03l-.12-.07c-1.47-.87-3.07-1.5-4.76-1.75a9.08 9.08 0 0 0-1.54-.11l1.34-2.18s-7.47-.46-11.65 3.9c-.48.5 0-2.77 0-2.77s-2.37.53-5.32 2.85L71 41.43l-.81-2.77c-2.96-2.33-5.32-2.85-5.32-2.85s.48 3.27 0 2.77c-4.18-4.36-11.65-3.9-11.65-3.9l1.34 2.18c-.49-.01-1.02.04-1.54.11-1.69.25-3.29.88-4.76 1.75l-.12.07c-.73 7.75-6.39 7.35-9.8 7.03v3.45s-1.56-.42-2.42-2.37l-.19.89.24 1.12c4.95 11.03 10.26 12.43 18.15 14.43l2.41.22 3.19 1.61.28 2.3c.79 2.76 1.84 3.68 4.2 5.32l.99.67 2.85-1.51 2.96-.28 2.97.29 2.3 1.18 1.19.33c2.36-1.64 3.76-3.23 4.55-5.99l.28-2.3 3.19-1.61 2.41-.22c7.89-2 13.85-4.78 18.8-15.81l-.6-.64z"/><path fill="none" d="M2.08 10.01h135.84V110H2.08z"/><path fill="#151841" d="M69.22 61.66c1.31-.6 2.88-.6 4.13.12l.02.01c1.28.75 1.45 1.97.55 3.16l-.16.19c-2.26 3.01-3.86 2.25-5.75-.64-.62-.95-.28-1.92.6-2.5.19-.14.4-.25.61-.34z"/><path fill="none" d="M2.08 10.01h135.84V110H2.08z"/><path fill="#151841" d="M106.57 52.25c-.53.26-1.1.53-1.64.77 2.43-4.38 3.14-12.18 3.18-12.56l.14-1.64-1.37.92c-.03.02-3.2 2.09-6.54 1.05-2.49-.78-4.5-3.08-5.97-6.83l-.08-.12.03-.01c.03-.19.04-.38.11-.55.74-1.95 1.73-3.82 2.33-5.8 1.06-3.55 1.16-7.14-.35-10.63-1.05-2.45-1.22-2.5-3.78-1.82-3.74.99-6.72 3.22-9.43 5.85-.38.37-.73.51-1.11.52-2.54-.89-6.92-2.03-10.88-1.11l-.16.07-.16-.07c-3.96-.92-8.34.22-10.88 1.11-.38-.01-.73-.15-1.11-.52-2.71-2.63-5.69-4.85-9.43-5.85-2.56-.68-2.73-.62-3.78 1.82-1.5 3.49-1.4 7.08-.35 10.63.59 1.99 1.59 3.86 2.33 5.8.06.17.08.36.11.55l.03.01-.08.12c-1.48 3.75-3.49 6.05-5.97 6.83-3.35 1.04-6.51-1.03-6.54-1.05l-1.37-.92.14 1.64c.03.38.74 8.18 3.18 12.56-.54-.24-1.11-.51-1.64-.77l-2-1 .93 2.04c.23.51 5.28 11.3 15.33 14.62-.88.12-1.84.24-2.75.35l-3.15.37 3 1.17c.34.11 6.94 2.22 12.12 2.22 1.07 0 2.06-.12 2.94-.34.41.58.88 1.12 1.47 1.6.56.45.96.62 1.32.72.18.05.56.05.56.05l1.76-.89.92.43c1.96.92 4.23.92 6.19 0l.92-.43 1.76.89s.38 0 .56-.05c.35-.1.75-.26 1.32-.72.59-.48 1.06-1.02 1.47-1.6.88.22 1.87.34 2.94.34 5.17 0 11.77-2.11 12.12-2.22l3.46-1.12-3.61-.42c-.91-.11-1.87-.23-2.75-.35 10.05-3.31 15.09-14.11 15.33-14.62l.93-2.04-2.05 1zM76.95 72.5c-2.81-1.74-4.35-2.6-5.91-2.59h-.02c-1.56-.01-3.1.85-5.91 2.59-4.12-2.37-4.49-10.14-2.64-13.8l.83 2.3c.64-1.55 1.19-3.01 1.88-4.4 1.24-2.5 1.75-3.1 1.75-3.1 1.42-2.18 6.78-2.18 8.2 0 0 0 .51.6 1.75 3.1.69 1.39 1.23 2.86 1.88 4.4l.83-2.3c1.85 3.67 1.49 11.44-2.64 13.8zM59.72 54.38c-2.54-.65-3.67-2.41-4.73-3.56 2.98.38 7.6 1.57 8.48 2.45-1.06 1.27-2.28 1.49-3.75 1.11zm18.88-1.11c.88-.88 5.51-2.08 8.48-2.45-1.06 1.15-2.19 2.91-4.73 3.56-1.47.38-2.69.16-3.75-1.11zm10.2 14.17c-.84.11-2.4.32-2.3.46.22.33 1.2.46 4.43 1.43-3.01.71-7.15 1.44-9.93.93.37-.79.67-1.63.9-2.59.1-.43.29-1.03.4-1.42l7.68-1.36c-.33-.12-.7-.65-1.01-.82-.34-.18-.64-.43-1.07-.73 6.18-3.42 10.39-8.35 12.94-14.9-5.81-.97-8.33-2.96-9.18-7.2-4.41-.91-8.19.43-11.56 3.36-.15-.87-.27-1.64-.45-2.67-2.83 4.38-3.53 5.11-5.31 5.56-1.97-3.75-2.44-7.94-3.29-12.03v-.1l-.01.05-.01-.05v.1c-.85 4.1-1.32 8.28-3.29 12.03-1.78-.45-2.48-1.18-5.31-5.56-.17 1.03-.3 1.8-.45 2.67-3.36-2.94-7.15-4.27-11.56-3.36-.85 4.24-3.38 6.23-9.18 7.2 2.55 6.54 6.76 11.47 12.94 14.9-.43.3-.73.54-1.07.73-.3.16-.65.26-.97.38 2.54.45 5.05 1.34 7.65 1.8.11.39.29.99.4 1.42.23.95.53 1.8.9 2.59-2.78.51-6.92-.21-9.93-.93 3.22-.47 3.22-.73 3.22-1.33 0-.17-.06-.75-.9-.86-8.65-1.1-14.21-8.68-16.46-12.42 2.26.98 3.47 1.72 3.75 1.33.21-.29-.69-1.06-1.39-1.97-1.98-2.61-3.29-9.33-3.66-12.27 1.46.63 3.88 1.33 6.49.52 2.97-.92 5.33-3.53 6.99-7.76l.01-.07.57.25c.21-.35.46-.68.56-1.06.12-.44.15-.99-.01-1.41-1.18-3.19-2.06-6.44-1.99-9.88.02-.94.27-1.87.43-2.94 2.24.94 3.87 2.27 5.27 3.91.81.95 1.56 1.95 2.39 2.88 1.27 1.4 3.72.89 4.13-.94.11-.5-.45-1.15-.76-1.75-.12-.08-.2-.17-.27-.26 2.04-.8 6.86-2.39 10.99-1.44.18.04.85.04 1.04 0 4.13-.95 8.95.63 10.99 1.44-.07.09-.15.18-.27.26-.32.6-.87 1.25-.76 1.75.41 1.83 2.86 2.35 4.13.94.83-.93 1.59-1.93 2.39-2.88 1.39-1.64 3.03-2.97 5.27-3.91.16 1.08.41 2.01.43 2.94.08 3.43-.81 6.68-1.99 9.88-.16.42-.13.97-.01 1.41.1.38.35.71.56 1.06.17-.08.37-.17.57-.25l.01.07c1.66 4.23 4.02 6.84 6.99 7.76 2.6.81 5.03.11 6.49-.52-.38 2.95-1.81 9.2-3.56 11.97-.55.88-1.44 1.81-1.24 2.1.28.39 1.23-.17 3.49-1.15-2.24 3.72-7.61 11.61-16.25 12.71z"/><path fill="none" d="M2.08 10.01h135.84V110H2.08z"/><ellipse cx="71.19" cy="63.01" fill="#fff" rx="1.7" ry=".62"/><path fill="none" d="M2.08 10.01h135.84V110H2.08z"/><path fill="#4750a1" stroke="#151841" stroke-width="1.702" stroke-miterlimit="10" d="M58.4 65.8l5.16 6.27c2.08 3.15 3.13 4.2 4.25 7.8 1.68 5.37 5.5 11.12 6.49 18.95l1.57 10.07-4.1.02s-13.7-10.25-21.82-28.39c-.59-1.33-2.64-13.62-2.64-13.62l8.13-1.1h2.96z"/><path fill="none" d="M2.08 10.01h135.84V110H2.08z"/><path fill="#f06529" stroke="#151841" stroke-width="1.702" stroke-miterlimit="10" d="M117.83 110l.29-19.82s.95-7.87-3.76-12.03c-4.37-3.86-13.72-5.67-13.72-5.67-.05-1.11.68-6.53 1-7.61 1.33-4.5.67-4.96.67-4.96s-5.65-.04-12.95 1.73c-1.69.41-9.58 1.3-11.93 1.35l1.16 5.64h-4.83l-.11 11.47-2.61 13.86v15.1s-3.36-9.75-7.02-15.1c-3.23-4.71-8.18-11.81-9.29-13.75-1-1.75 4.82-4.01 4.28-5.94l-1.08-3.85.47-4.62-15.04-2.59.37 1.79c.22 1.06.51 2.1.86 3.12a25.77 25.77 0 0 0 2.08 4.57l.64 1.11s-11.65-.21-17.01 7.66C26.52 87.01 25.35 110 25.35 110" stroke-linejoin="round"/><path fill="none" d="M2.08 10.01h135.84V110H2.08z"/><path fill="none" stroke="#151841" stroke-width="1.702" stroke-miterlimit="10" d="M51.84 76.09c-1.69-1.64-3.51-2.63-5.63-2.63" stroke-linecap="round" stroke-linejoin="round"/><path fill="none" d="M2.08 10.01h135.84V110H2.08z"/><path fill="none" d="M2.08 10.01h135.84V110H2.08z"/><path fill="none" d="M2.08 10.01h135.84V110H2.08z"/><path fill="none" stroke="#151841" stroke-width="1.702" stroke-miterlimit="10" d="M40.07 90.28c.29 2.43-.33 12.12-.33 12.12" stroke-linecap="round" stroke-linejoin="round"/><path fill="none" d="M2.08 10.01h135.84V110H2.08z"/><path fill="none" stroke="#151841" stroke-width="1.702" stroke-miterlimit="10" d="M103.26 91.22c-1.09 8.99.45 11.18.45 11.18" stroke-linecap="round" stroke-linejoin="round"/><path fill="none" d="M2.08 10.01h135.84V110H2.08z"/><path fill="none" stroke="#151841" stroke-width="1.702" stroke-miterlimit="10" d="M100.65 72.47s-9.26-.58-18.51 7.84" stroke-linecap="round" stroke-linejoin="round"/><path fill="none" d="M2.08 10.01h135.84V110H2.08z"/><path fill="none" stroke="#151841" stroke-width="1.702" stroke-miterlimit="10" d="M99.92 72.32s-7.39-.68-18.91 3.34" stroke-linecap="round" stroke-linejoin="round"/><path fill="none" d="M2.08 10.01h135.84V110H2.08z"/></svg>