<svg width="56" height="56" viewBox="0 0 56 56" xmlns="http://www.w3.org/2000/svg"><path d="M0 0h56.3v56.3H0z" fill="#4a4797"/><path d="M20 39.8L34.2 41s5.2 6 5 7.3 1.2 7.5-1.4 8.8-10.8-1.4-12.1-1.7-5.5 1.7-8.3-1.9c-2.8-3.8-.7-1.5-.7-3.4-.2-1.9 3.3-10.3 3.3-10.3z" fill="#555659"/><path d="M37.3 39.7q-.6.15-.6.3c0 .3.4.1 1.7.7a14.37 14.37 0 0 1-5.4.5 5.78 5.78 0 0 0 .5-1.4 1.88 1.88 0 0 0 .2-.8c1.4-.2.8-.4 2.3-.6 0-.1.6-.1.6-.2-.2-.1.9-.3.7-.3a6.12 6.12 0 0 1-.6-.4 14.71 14.71 0 0 0 7-8.1c-3.2-.5-4.5-1.6-5-3.9a6.77 6.77 0 0 0-6.2 1.8c-.1-.5-.1-.9-.2-1.4-1.5 2.4-1.9 2.8-2.9 3a18.94 18.94 0 0 1-1.7-5.4c-.5 2.3-.5 3.7-1.5 5.7-.9-.2-1.7-1-3.2-3.3a7.84 7.84 0 0 0-.2 1.4 6.08 6.08 0 0 0-5.9-1.4c-.5 2.3-.5 3.2-3.7 3.8 1.3 3.6 3.1 6.1 6.4 7.9a3.55 3.55 0 0 1-.9.4c-.2.1-.3.3-.5.4 0 .1-.8-.4-.8-.3 1.3.2 2.8.7 4.1 1a1.88 1.88 0 0 1 .2.8 5.78 5.78 0 0 0 .5 1.4 14.37 14.37 0 0 1-5.4-.5c1.7-.2 1.7-.4 1.7-.7 0-.1 0-.4-.5-.5-5.7-.6-8.2-5.2-9.4-7.2 1.2.5 1.8.9 2 .6s.2-.4-.2-.7c-1.2-1.2-1.8-5.1-2-6.8.8.3 2.2 1 3.5.6 1.6-.5 2.9-1.9 3.8-4.2.1 0 .2.1.3.1l.3-.6a.85.85 0 0 0 0-.7 16.18 16.18 0 0 1-1.1-5.3 19.14 19.14 0 0 1 .4-2.1 7.88 7.88 0 0 1 2.8 2.3 16.6 16.6 0 0 0 1.3 1.4c.7.7 2 1 2.2 0 .1-.3-.2-.6-.4-.9a.1.1 0 0 1-.1-.1c1.1-.4 3.7-1.3 5.9-.8h.3c.1 0 .2.1.3 0a12.94 12.94 0 0 1 6.4.3l.5.8c-.2.3-.7.6-.6.8.3.4.4.6 1.1-.2a17.38 17.38 0 0 1 1.3-1.5 11.07 11.07 0 0 1 3.8-2.8c.1.6.3 2.5.3 3a12.52 12.52 0 0 1-1.1 5c-.1.2-.5.5-.4.8s0 0 .1.2c.1 0 .4.2.5.2l-.1.2c.9 2.3 2.1 3.3 3.7 3.8a5.93 5.93 0 0 0 3.9-.5c-.2 1.6-1.5 5.8-2.8 7.1-.3.3-.3.6-.2.7s1.1-.4 2.4-.9c-.9 2.8-4.7 6.8-9.4 7.5z" fill="#c3c2ce"/><path d="M46.7 28.5a2.69 2.69 0 0 1-1.3 1.3V28c-1.8.2-4.9.4-5.3-3.8H40a5.77 5.77 0 0 0-2.6-.9c-.3 0-.6-.1-.8-.1l.7-1.2s-4.1-.2-6.3 2.2c-.3.3 0-1.5 0-1.5a8.63 8.63 0 0 0-2.9 1.5l-.4 1.5-.4-1.5a8.63 8.63 0 0 0-2.9-1.5s.3 1.7 0 1.5c-2.3-2.4-6.3-2.2-6.3-2.2l.7 1.2a2.2 2.2 0 0 0-.8.1 9 9 0 0 0-2.6.9h-.1c-.4 4.2-3.5 4-5.3 3.8v1.8a2.21 2.21 0 0 1-1.3-1.3l-.1.5.1.6c2.7 5.9 5.5 6.8 9.8 7.8l1.3.1 1.7.9.2 1.2c.4 1.5 1 1.9 2.3 2.9l.5.4 1.5-.8 1.6-.2 1.6.2 1.2.6.6.2a6 6 0 0 0 2.5-3.3l.2-1.2 1.7-.9 1.3-.1c4.3-1.1 7.5-2.6 10.1-8.6l-.1-.3z" fill="#fff"/><path d="M26.8 36.5a2.67 2.67 0 0 1 2.3.1 1 1 0 0 1 .3 1.7l-.1.1c-1.2 1.6-2 1.2-3.1-.3a.87.87 0 0 1 .3-1.3c0-.2.1-.2.3-.3z" fill="#1e1e40"/><path d="M47 31.4c-.3.1-.6.3-.9.4a21.12 21.12 0 0 0 1.7-6.8l.1-.9-.7.5a5 5 0 0 1-3.6.6c-1.3-.4-2.5-1.6-3.3-3.7v-.1a.37.37 0 0 1 .1-.3 23.76 23.76 0 0 0 1.2-3.2 8 8 0 0 0-.2-5.7c-.6-1.3-.6-1.3-2-1a10.58 10.58 0 0 0-5.1 3.2.86.86 0 0 1-.6.3 11 11 0 0 0-5.9-.6h-.2a11 11 0 0 0-5.9.6.86.86 0 0 1-.6-.3 11.38 11.38 0 0 0-5.1-3.2c-1.4-.4-1.4-.3-2 1a7.78 7.78 0 0 0-.4 5.8c.3 1.1.8 2 1.2 3.2a.37.37 0 0 0 .1.3v.1c-.8 2-1.8 3.3-3.3 3.7a4.76 4.76 0 0 1-3.6-.6l-.7-.5.3.8a21.12 21.12 0 0 0 1.7 6.8c-.3-.1-.6-.3-.9-.4l-1.1-.5.5 1.1c.1.3 2.9 6.1 8.3 7.9-.5.1-1 .1-1.5.2l-1.4.2 1.3.7a24.6 24.6 0 0 0 6.6 1.2 7.77 7.77 0 0 0 1.6-.2 3 3 0 0 0 .8.8 5.74 5.74 0 0 0 .7.4h.3l.9-.5a4.21 4.21 0 0 0 .5.2 4 4 0 0 0 3.4 0l.5-.2.9.5h.3a1.72 1.72 0 0 0 .7-.4 6 6 0 0 0 .8-.8 7.77 7.77 0 0 0 1.6.2 25.56 25.56 0 0 0 6.6-1.2l1.8-.6-1.9-.2c-.5-.1-1-.1-1.5-.2 5.4-1.8 8.2-7.7 8.3-7.9l.5-1.1zM30.9 42.3c-1.5-.9-2.4-1.4-3.2-1.4s-1.6.4-3.2 1.4c-2.3-1.3-2.5-5.5-1.4-7.5a5.64 5.64 0 0 1 .4 1.2 24.43 24.43 0 0 1 1-2.4c.7-1.3.9-1.6.9-1.6.8-1.2 3.7-1.2 4.4 0a6.52 6.52 0 0 1 .9 1.6 13.32 13.32 0 0 1 1 2.4c.1-.4.3-.8.4-1.2 1.2 2.1 1 6.3-1.2 7.5zm-9.3-9.7c-1.3-.3-1.9-1.3-2.6-1.9 1.6.2 4.1.8 4.6 1.3a1.86 1.86 0 0 1-2 .6zm10.2-.6c.5-.5 3-1.1 4.6-1.3a5.5 5.5 0 0 1-2.6 1.9 1.92 1.92 0 0 1-2-.6zm5.5 7.7c-.4.1-1.3.2-1.2.2.1.2.6.2 2.4.8a14.37 14.37 0 0 1-5.4.5 5.78 5.78 0 0 0 .5-1.4 1.88 1.88 0 0 0 .2-.8c1.4-.2 2.8-.5 4.2-.7a2.18 2.18 0 0 1-.5-.4 6.12 6.12 0 0 1-.6-.4 14.71 14.71 0 0 0 7-8.1c-3.2-.5-4.5-1.6-5-3.9a6.77 6.77 0 0 0-6.2 1.8c-.1-.5-.1-.9-.2-1.4-1.5 2.4-1.9 2.8-2.9 3a23.72 23.72 0 0 1-1.7-6.6c-.5 2.3-.7 4.5-1.7 6.6-.9-.2-1.3-.6-2.9-3a7.84 7.84 0 0 0-.2 1.4 6.59 6.59 0 0 0-6.2-1.8c-.5 2.3-1.8 3.4-5 3.9a15 15 0 0 0 7 8.1 2.09 2.09 0 0 1-.6.4c-.2.1-.3.1-.5.2 1.3.2 2.5.9 3.8 1.2.1.2.5.3.5.6a5.78 5.78 0 0 0 .5 1.4 14.37 14.37 0 0 1-5.4-.5c1.7-.2 1.7-.4 1.7-.7 0-.1 0-.4-.5-.5-4.7-.6-7.7-4.7-8.9-6.8 1.2.5 1.8.9 2 .7s-.4-.6-.7-1c-1-1.4-1.7-5-1.9-6.7a5.65 5.65 0 0 0 3.5.3c1.6-.5 2.9-1.9 3.8-4.2.1 0 .2.1.3.1l.3-.6a.85.85 0 0 0 0-.7 16.18 16.18 0 0 1-1.1-5.3 10 10 0 0 1 .2-1.6 7.73 7.73 0 0 1 2.9 2.2 17.38 17.38 0 0 0 1.3 1.5 1.38 1.38 0 0 0 2.3-.5c.1-.3-.2-.6-.4-.9a.1.1 0 0 1-.1-.1c1.1-.4 3.7-1.3 5.9-.8h.5a10.3 10.3 0 0 1 5.9.8h-.5c-.2.3-.5.7-.4.9a1.37 1.37 0 0 0 2.3.5 17.38 17.38 0 0 1 1.3-1.5 7.43 7.43 0 0 1 2.9-2.2 10 10 0 0 1 .2 1.6 14 14 0 0 1-1.1 5.3.85.85 0 0 0 0 .7l.3.6c.1 0 .2-.1.3-.1.9 2.3 2.2 3.7 3.8 4.2a4.88 4.88 0 0 0 3.5-.3 22 22 0 0 1-1.9 6.5c-.3.5-.8 1-.7 1.1s.7-.1 1.8-.6c-1.1 2-4 6.3-8.7 7z" fill="#1e1e40"/><ellipse cx="27.8" cy="37.2" rx=".9" ry=".3" fill="#fff"/><path d="M20.8 38.7l2.8 3.4a14.4 14.4 0 0 1 2.3 4.2c.9 2.9 1.5 2 2 6.2l-.1 4.9-6.2-.4s-.8-.4-5.2-10.2c-.3-.7-1.4-7.4-1.4-7.4l4.4-.6h1.4z" fill="#4a4797"/><path d="M20.9 38.3c-.1.4-.1.7-.2 1.1l2.5 3.1.6.9a10.62 10.62 0 0 1 1.6 3.2c.3 1 .8 2 1.2 3.2.2.5.9 1.7 1.1 2.4.2-.3.2-1.2.4-1.5-.1-.3-.6-.8-.7-1.1a32.13 32.13 0 0 1-1.2-3.1 12.68 12.68 0 0 0-1.7-3.5 7 7 0 0 1-.6-.9l-3-3.6z" fill="#1e1e40"/><path d="M54.7 51.6c.1-3.5-1-4-3.6-6.2-2.4-2-7.5-3.1-7.5-3.1 0-.6.4-3.6.5-4.1.7-2.5.4-2.7.4-2.7a35.89 35.89 0 0 0-7.1.9 58.88 58.88 0 0 1-6.5.7l.6 3.1H29l.1 6.2-1.4 7.6s-.4 5.5-1.7 3.3c-1.2-2-1.2-1.7-2.1-3.3-2.3-3.6-1.4-1.9-5-7.5-.6-.9 2.6-2.2 2.4-3.2l-.6-2 .3-2.5-8.2-1.4.2.9a10.93 10.93 0 0 0 .5 1.7c.3.8.7 1.6 1.1 2.5l.3.6S7.3 43 4.5 47.3a14.55 14.55 0 0 0-2.1 3.9 11.3 11.3 0 0 0-.4 5l1 1 30.2.5 21.2-1c0 .1.2-2.6.3-5.1z" fill="#2e2c55"/><path d="M27.3 58.6L1.4 57.3a57.57 57.57 0 0 1 .3-6.5 10.44 10.44 0 0 1 2.2-3.6c3.4-3.8 8.4-4.5 10.2-4.6a18.89 18.89 0 0 1-1.1-2.5c-.2-.6-.3-1.1-.5-1.7l-.3-1.6 9.2 1.6-.4 2.9.5 2c.2.8-.6 1.4-1.3 2-.3.3-1 .8-1 1 .4.8 2.2 3.3 3.7 5.5l1.3 1.9a34 34 0 0 1 1.8 3c.5.9 1.1-.3 1.1-.3l-.1-2.5 1.4-7.6.1-6.6H31l-.6-3.1h.6a57.73 57.73 0 0 0 6.3-.7 32.5 32.5 0 0 1 7.1-.9h.1l.1.1c.3.2.5.7-.2 3.2-.1.5-.4 2.7-.5 3.6 1.2.3 5.2 1.2 7.3 3.1 2.7 2.4 4 3.5 3.7 7.1-.4 6.5-.1 5.4-.1 5.4zm2.3-17.9l-.1 5.7-1.2 10.3 12.1-.1 12-.1 1.8-.2v-4.4c.1-3.5-1-4-3.5-6.1-2.3-1.9-7.2-3-7.2-3l-.3-.1v-.4c0-.7.4-3.7.5-4.3a12.1 12.1 0 0 0 .4-2 35 35 0 0 0-6.6.9 59.06 59.06 0 0 1-6 .7l.6 3.1zM2.5 56.9l15.4.4c-.1-.2 9.5 1.8 5.6-3.1l-1.3-1.9c-1.6-2.4-3.3-4.7-3.7-5.5s.4-1.5 1.2-2.2c.4-.3 1.1-.9 1-1.1l-.6-2.2.2-2.2-7.1-1.2.1.3c.1.5.3 1.1.4 1.6a12.81 12.81 0 0 0 1.1 2.4l.7 1.3h-.8c-.7 0-5.8.2-9.2 3.4A10.71 10.71 0 0 0 2.7 51a4.4 4.4 0 0 0-.2 1.6 25.47 25.47 0 0 0 0 4.3z" fill="#1e1e40"/><path d="M17.4 44.8a.37.37 0 0 1-.3-.1 3.69 3.69 0 0 0-2.8-1.3.54.54 0 0 1-.5-.5.47.47 0 0 1 .5-.5 5 5 0 0 1 3.4 1.5c.2.2.2.5 0 .6s-.2.3-.3.3zm-6.5 12.7c-.3 0-.5-.2-.4-.5 0 0 .2-3.7.1-4.9 0-.2.1-.5.4-.5s.5.1.5.4a37.65 37.65 0 0 1-.1 5.1.66.66 0 0 1-.5.4zm35.1 0a1.08 1.08 0 0 1-.7-.3c-.7-.6-.9-2.3-.6-4.7 0-.2.3-.4.5-.4s.4.3.4.5c-.3 2.9.1 3.7.3 3.9s.1.1.2.1.5.1.5.3-.1.5-.4.5c-.1.1-.1.1-.2.1zM33.7 47a.37.37 0 0 1-.3-.1c-.2-.2-.2-.5 0-.6 5.1-4.6 10.1-4.4 10.3-4.4a.45.45 0 1 1-.1.9 14.91 14.91 0 0 0-9.7 4.1c0 .1-.1.1-.2.1z" fill="#1e1e40"/><path d="M33.1 44.6c-.2 0-.4-.1-.4-.3a.45.45 0 0 1 .3-.6 26.29 26.29 0 0 1 10.4-1.8.45.45 0 1 1-.1.9 28.2 28.2 0 0 0-10 1.7.31.31 0 0 1-.2.1z" fill="#1e1e40"/></svg>
